<svg width="256" height="256" viewBox="0 -64 256 256" fill="none" xmlns="http://www.w3.org/2000/svg">
    <path
        d="M92.3125 165.062C85.8958 165.062 80.1458 163.479 75.0625 160.312C70.0208 157.104 66.0417 152.583 63.125 146.75C60.2083 140.917 58.75 134.021 58.75 126.062C58.75 118.812 60.2083 112.479 63.125 107.062C66.0417 101.604 70.0208 97.375 75.0625 94.375C80.1042 91.3333 85.8333 89.8125 92.25 89.8125C97.2083 89.8125 101.708 90.8333 105.75 92.875C109.833 94.9167 112.708 97.4792 114.375 100.562V93.9375C114.375 92.8958 114.688 92.125 115.312 91.625C115.979 91.0833 116.688 90.8125 117.438 90.8125C118.229 90.8125 118.938 91.0833 119.562 91.625C120.188 92.125 120.5 92.9167 120.5 94V112.312C120.5 113.312 120.188 114.062 119.562 114.562C118.979 115.021 118.333 115.25 117.625 115.25C115.958 115.25 114.958 114.271 114.625 112.312C113.667 107.188 111.125 103.062 107 99.9375C102.875 96.7708 98.0208 95.1875 92.4375 95.1875C86.7292 95.1875 81.7917 96.5417 77.625 99.25C73.5 101.958 70.3125 105.667 68.0625 110.375C65.8542 115.083 64.75 120.458 64.75 126.5C64.75 133.5 66.0208 139.479 68.5625 144.438C71.1458 149.396 74.5417 153.188 78.75 155.812C82.9583 158.396 87.5 159.688 92.375 159.688C98.4167 159.688 103.458 158.062 107.5 154.812C111.542 151.521 114.396 147.104 116.062 141.562C116.479 140.396 117.312 139.812 118.562 139.812C119.396 139.812 120.188 140.083 120.938 140.625C121.729 141.167 122.125 141.812 122.125 142.562C122.125 142.771 122.104 142.917 122.062 143C121.312 146.5 119.729 149.938 117.312 153.312C114.938 156.688 111.688 159.5 107.562 161.75C103.438 163.958 98.3542 165.062 92.3125 165.062ZM167.5 165.062C159.167 165.062 152.396 162.729 147.188 158.062C142.021 153.354 139.438 146.854 139.438 138.562C139.438 133.229 140.708 128.667 143.25 124.875C145.833 121.083 149.25 118.188 153.5 116.188C157.792 114.188 162.521 113.188 167.688 113.188C173.896 113.188 179.021 114.375 183.062 116.75C187.146 119.125 189.188 123.125 189.188 128.75C189.188 130.167 188.875 131.354 188.25 132.312C187.667 133.271 186.729 133.75 185.438 133.75C183.938 133.75 182.979 132.604 182.562 130.312C182.188 127.979 181.771 124.917 181.312 121.125C179.104 120.042 176.958 119.312 174.875 118.938C172.792 118.521 170.708 118.312 168.625 118.312C161.333 118.312 155.646 120.104 151.562 123.688C147.479 127.271 145.438 132.229 145.438 138.562C145.438 145.812 147.438 151.188 151.438 154.688C155.479 158.188 160.667 159.938 167 159.938C170.958 159.938 174.229 159.396 176.812 158.312C179.396 157.229 181.917 155.542 184.375 153.25C185.083 152.583 185.938 152.25 186.938 152.25C188.396 152.25 189.125 153.104 189.125 154.812C189.125 155.729 188.75 156.604 188 157.438C186.458 159.104 184.479 160.5 182.062 161.625C179.688 162.75 177.208 163.604 174.625 164.188C172.042 164.771 169.667 165.062 167.5 165.062Z"
        fill="#CC4545"/>
</svg>
